<?xml version="1.0" encoding="utf-8"?>
<svg xmlns="http://www.w3.org/2000/svg" width="128" height="50" viewBox="0 0 128 50">
  <path fill="#ffffff" d="M26.625 32.179H19.32l7.304-11.246zM0 50.017h7.737l7.136-10.987h11.713v11.017h7.275V9.817h-7.755zM42.407 9.768h-7.39v40.27h19.245v-7.544H42.407zM73.516 9.768v23.603c0 2.926 1.213 9.238-6.004 9.238-7.218 0-6.158-6.159-6.158-9.238V9.768h-7.657v24.268c0 8.558 3.686 16.003 13.667 16.003 9.98 0 13.666-7.445 13.666-16.003V9.768z"/>
  <path fill="#d9000d" d="M127.89 50.018l-13.385-19.462 12.874-18.736h-15.977L98.624 30.133V.424h-14.01v49.594h14.01V31.29l12.625 18.73z"/>
  <path fill="#d9000d" d="M105.552.463a3.237 3.237 0 013.233 3.232 3.237 3.237 0 01-3.233 3.233 3.236 3.236 0 01-3.233-3.233 3.236 3.236 0 013.233-3.232zm0 6.928a3.7 3.7 0 003.695-3.696A3.7 3.7 0 00105.552 0a3.699 3.699 0 00-3.694 3.695 3.699 3.699 0 003.694 3.696z"/>
  <path fill="#d9000d" d="M104.736 2.44h1.047c.245 0 .424.05.537.152.114.1.17.229.17.385a.54.54 0 01-.087.297.496.496 0 01-.257.198c-.113.041-.27.062-.47.062h-.94zm0 1.473h.508c.112 0 .194.005.243.015a.675.675 0 01.2.089c.065.042.139.116.222.22.082.106.188.258.315.456l.438.688h.55l-.575-.9a2.295 2.295 0 00-.363-.44 1.167 1.167 0 00-.264-.164c.318-.044.552-.146.704-.307a.831.831 0 00.228-.593.927.927 0 00-.138-.498.728.728 0 00-.367-.315c-.154-.06-.378-.089-.672-.089h-1.466v3.306h.437z"/>
</svg>
