<?xml version="1.0" encoding="UTF-8"?>
<svg id="Layer_2" xmlns="http://www.w3.org/2000/svg" version="1.1" viewBox="0 0 751 197.9">
  <!-- Generator: Adobe Illustrator 30.2.1, SVG Export Plug-In . SVG Version: 2.1.1 Build 1)  -->
  <defs>
    <style>
      .st0 {
        fill: #e2001a;
      }

      .st1 {
        fill: #fff;
      }

      .st2 {
        fill: #2a2d35;
      }
    </style>
  </defs>
  <g id="Layer_1-2">
    <g>
      <rect class="st0" x="294.5" y="0" width="456.4" height="197.9"/>
      <polygon class="st2" points="266.2 169.7 232 169.7 179.7 105 179.7 169.7 151.4 169.7 151.4 28.2 179.7 28.2 179.7 91.7 232.2 28.2 266.2 28.2 206.3 97.7 266.2 169.7"/>
      <path class="st2" d="M84.3,28.2h-32.2L0,169.7h29.9l10-30.2h56.7l9.8,30.2h29.8L84.3,28.2ZM47.3,118.2l20.8-59.7,20.8,59.7h-41.7Z"/>
      <path class="st1" d="M699.9,43.1c-5.6-5-13.4-7.6-23.2-7.6s-16.3,2.3-21.7,7c-5.4,4.7-8.2,11.2-8.2,19.8s1.6,11.8,4.7,15.8c3.1,4,7,7.1,11.7,9.2,4.7,2.2,11,4.4,19,6.8,8.9,2.6,16,5.2,21.4,7.8,5.4,2.6,9.9,6.4,13.7,11.5s5.6,12,5.6,20.6-1.4,11.8-4.1,17.2-7.1,9.9-13,13.3c-5.9,3.4-13.3,5.1-22.2,5.1s-16.1-1.6-22.8-4.9c-6.7-3.3-12-7.7-15.9-13.2s-6.2-11.5-6.9-17.9h9.2c.7,4.2,2.3,8.5,5,13,2.7,4.4,6.7,8.2,11.9,11.2,5.2,3,11.7,4.5,19.3,4.5s17.2-2.7,22.4-8.1c5.2-5.4,7.9-12.1,7.9-20.1s-1.6-12.5-4.9-16.7c-3.3-4.2-7.3-7.4-12.1-9.6-4.8-2.2-11.3-4.6-19.6-7.1-8.8-2.6-15.8-5.1-21-7.6-5.2-2.4-9.7-6.1-13.3-11.1-3.6-5-5.4-11.5-5.4-19.7s3.5-18.1,10.4-24.6c6.9-6.4,16.6-9.6,28.9-9.6s22.3,3.1,29.6,9.3,11.8,13.7,13.5,22.3h-9.4c-1.3-6.2-4.8-11.8-10.4-16.8M597.2,155.8c-8.8,9.2-20.6,13.8-35.5,13.8s-27.1-4.6-36-13.8c-8.9-9.2-13.3-23.2-13.3-42.1V28.4h9v85.4c0,16.4,3.6,28.4,10.8,36.1,7.2,7.6,17,11.4,29.5,11.4s21.9-3.8,29-11.4c7-7.6,10.5-19.6,10.5-36.1V28.4h9.2v85.4c0,18.8-4.4,32.8-13.1,42.1h0ZM431.4,169.7V28.4h9v133.8h52.7v7.4h-61.7,0ZM389.8,44.7c-5.9-5.5-15.5-8.2-28.8-8.2h-29.2v63.9h29.2c25.1,0,37.7-10.6,37.7-31.7s-2.9-18.6-8.8-24h0ZM396,98.2c-7.9,6.7-19.4,10.1-34.5,10.1h-29.9v61.3h-9V28.4h38.9c15.6,0,27.2,3.5,34.9,10.6,7.6,7.1,11.4,17,11.4,29.6s-3.9,22.8-11.8,29.5h0Z"/>
    </g>
  </g>
</svg>